<mxfile host="65bd71144e">
    <diagram id="LXdWw_agFxwsVXlmGle6" name="Page-1">
        <mxGraphModel dx="1420" dy="519" grid="1" gridSize="10" guides="1" tooltips="1" connect="1" arrows="1" fold="1" page="1" pageScale="1" pageWidth="850" pageHeight="1100" math="0" shadow="0">
            <root>
                <mxCell id="0"/>
                <mxCell id="1" parent="0"/>
                <mxCell id="2" value="Test" style="swimlane;" vertex="1" parent="1">
                    <mxGeometry x="200" y="170" width="210" height="200" as="geometry"/>
                </mxCell>
                <mxCell id="5" value="-id: str&lt;br&gt;&lt;div&gt;&lt;span&gt;-questions: Arr&amp;lt;Question&amp;gt;&lt;/span&gt;&lt;/div&gt;" style="text;html=1;align=left;verticalAlign=middle;resizable=0;points=[];autosize=1;strokeColor=none;fillColor=none;" vertex="1" parent="2">
                    <mxGeometry x="5" y="30" width="150" height="30" as="geometry"/>
                </mxCell>
                <mxCell id="3" value="" style="endArrow=none;html=1;" edge="1" parent="1">
                    <mxGeometry width="50" height="50" relative="1" as="geometry">
                        <mxPoint x="410" y="240" as="sourcePoint"/>
                        <mxPoint x="200" y="240" as="targetPoint"/>
                        <Array as="points"/>
                    </mxGeometry>
                </mxCell>
                <mxCell id="8" value="Question" style="swimlane;startSize=23;" vertex="1" parent="1">
                    <mxGeometry x="-130" y="170" width="210" height="210" as="geometry"/>
                </mxCell>
                <mxCell id="9" value="-id: str&lt;br&gt;-prompt: str&lt;br&gt;&lt;div&gt;&lt;span&gt;-answers: Arr&amp;lt;str&amp;gt;&lt;/span&gt;&lt;/div&gt;&lt;div&gt;&lt;span&gt;-correct_ans: str&lt;/span&gt;&lt;/div&gt;&lt;div&gt;&lt;span&gt;-types: Arr&amp;lt;str&amp;gt;&lt;/span&gt;&lt;/div&gt;" style="text;html=1;align=left;verticalAlign=middle;resizable=0;points=[];autosize=1;strokeColor=none;fillColor=none;" vertex="1" parent="8">
                    <mxGeometry x="10" y="20" width="110" height="80" as="geometry"/>
                </mxCell>
                <mxCell id="11" value="" style="endArrow=none;html=1;" edge="1" parent="8">
                    <mxGeometry width="50" height="50" relative="1" as="geometry">
                        <mxPoint x="210" y="111.5" as="sourcePoint"/>
                        <mxPoint y="111.5" as="targetPoint"/>
                        <Array as="points">
                            <mxPoint x="110" y="111.5"/>
                        </Array>
                    </mxGeometry>
                </mxCell>
                <mxCell id="13" value="" style="html=1;whiteSpace=wrap;aspect=fixed;shape=isoRectangle;" vertex="1" parent="1">
                    <mxGeometry x="160" y="270" width="40" height="24" as="geometry"/>
                </mxCell>
                <mxCell id="14" value="" style="line;strokeWidth=2;html=1;" vertex="1" parent="1">
                    <mxGeometry x="80" y="277" width="80" height="10" as="geometry"/>
                </mxCell>
                <mxCell id="15" value="1" style="text;html=1;align=center;verticalAlign=middle;resizable=0;points=[];autosize=1;strokeColor=none;fillColor=none;" vertex="1" parent="1">
                    <mxGeometry x="170" y="250" width="20" height="20" as="geometry"/>
                </mxCell>
                <mxCell id="16" value="1...*" style="text;html=1;align=center;verticalAlign=middle;resizable=0;points=[];autosize=1;strokeColor=none;fillColor=none;" vertex="1" parent="1">
                    <mxGeometry x="80" y="250" width="40" height="20" as="geometry"/>
                </mxCell>
            </root>
        </mxGraphModel>
    </diagram>
</mxfile>